<mxfile host="Electron" modified="2024-03-21T02:33:11.990Z" agent="Mozilla/5.0 (Windows NT 10.0; Win64; x64) AppleWebKit/537.36 (KHTML, like Gecko) draw.io/24.0.4 Chrome/120.0.6099.109 Electron/28.1.0 Safari/537.36" etag="zDTdNhck5uLObFRTd_i2" version="24.0.4" type="device">
  <diagram name="Page-1" id="hsxhyXpkccQjmakTr9Rk">
    <mxGraphModel dx="607" dy="361" grid="1" gridSize="10" guides="1" tooltips="1" connect="1" arrows="1" fold="1" page="1" pageScale="1" pageWidth="850" pageHeight="1100" math="0" shadow="0">
      <root>
        <mxCell id="0" />
        <mxCell id="1" parent="0" />
        <mxCell id="pd-98tq6UQfaG_9ArizV-4" style="edgeStyle=orthogonalEdgeStyle;rounded=0;orthogonalLoop=1;jettySize=auto;html=1;entryX=0;entryY=0.5;entryDx=0;entryDy=0;endArrow=open;endFill=0;endSize=12;" edge="1" parent="1" source="pd-98tq6UQfaG_9ArizV-1" target="pd-98tq6UQfaG_9ArizV-2">
          <mxGeometry relative="1" as="geometry" />
        </mxCell>
        <mxCell id="pd-98tq6UQfaG_9ArizV-1" value="&lt;p style=&quot;margin:0px;margin-top:4px;text-align:center;&quot;&gt;&lt;b&gt;Client&lt;/b&gt;&lt;/p&gt;&lt;hr size=&quot;1&quot; style=&quot;border-style:solid;&quot;&gt;&lt;p style=&quot;margin:0px;margin-left:4px;&quot;&gt;&lt;br&gt;&lt;/p&gt;&lt;hr size=&quot;1&quot; style=&quot;border-style:solid;&quot;&gt;&lt;p style=&quot;margin:0px;margin-left:4px;&quot;&gt;&lt;br&gt;&lt;/p&gt;" style="verticalAlign=top;align=left;overflow=fill;html=1;whiteSpace=wrap;" vertex="1" parent="1">
          <mxGeometry x="20" y="180" width="160" height="90" as="geometry" />
        </mxCell>
        <mxCell id="pd-98tq6UQfaG_9ArizV-2" value="&lt;p style=&quot;margin:0px;margin-top:4px;text-align:center;&quot;&gt;&lt;b&gt;Context&lt;/b&gt;&lt;/p&gt;&lt;hr size=&quot;1&quot; style=&quot;border-style:solid;&quot;&gt;&lt;p style=&quot;margin:0px;margin-left:4px;&quot;&gt;&lt;br&gt;&lt;/p&gt;&lt;hr size=&quot;1&quot; style=&quot;border-style:solid;&quot;&gt;&lt;p style=&quot;margin:0px;margin-left:4px;&quot;&gt;+ Request()&lt;/p&gt;" style="verticalAlign=top;align=left;overflow=fill;html=1;whiteSpace=wrap;" vertex="1" parent="1">
          <mxGeometry x="280" y="150" width="160" height="90" as="geometry" />
        </mxCell>
        <mxCell id="pd-98tq6UQfaG_9ArizV-5" style="edgeStyle=orthogonalEdgeStyle;rounded=0;orthogonalLoop=1;jettySize=auto;html=1;entryX=1;entryY=0.5;entryDx=0;entryDy=0;endArrow=diamond;endFill=0;endSize=12;" edge="1" parent="1" source="pd-98tq6UQfaG_9ArizV-3" target="pd-98tq6UQfaG_9ArizV-2">
          <mxGeometry relative="1" as="geometry" />
        </mxCell>
        <mxCell id="pd-98tq6UQfaG_9ArizV-3" value="&lt;p style=&quot;margin:0px;margin-top:4px;text-align:center;&quot;&gt;&lt;i&gt;&amp;lt;&amp;lt;Interface&amp;gt;&amp;gt;&lt;/i&gt;&lt;br&gt;&lt;b&gt;IState&lt;/b&gt;&lt;/p&gt;&lt;hr size=&quot;1&quot; style=&quot;border-style:solid;&quot;&gt;&lt;p style=&quot;margin:0px;margin-left:4px;&quot;&gt;&lt;br&gt;&lt;/p&gt;&lt;hr size=&quot;1&quot; style=&quot;border-style:solid;&quot;&gt;&lt;p style=&quot;margin:0px;margin-left:4px;&quot;&gt;+ Handle()&lt;br&gt;&lt;/p&gt;" style="verticalAlign=top;align=left;overflow=fill;html=1;whiteSpace=wrap;" vertex="1" parent="1">
          <mxGeometry x="560" y="120" width="190" height="110" as="geometry" />
        </mxCell>
        <mxCell id="pd-98tq6UQfaG_9ArizV-6" value="- state" style="text;html=1;align=center;verticalAlign=middle;resizable=0;points=[];autosize=1;strokeColor=none;fillColor=none;" vertex="1" parent="1">
          <mxGeometry x="500" y="148" width="60" height="30" as="geometry" />
        </mxCell>
        <mxCell id="pd-98tq6UQfaG_9ArizV-8" style="edgeStyle=orthogonalEdgeStyle;rounded=0;orthogonalLoop=1;jettySize=auto;html=1;entryX=0.25;entryY=1;entryDx=0;entryDy=0;endArrow=block;endFill=0;dashed=1;endSize=12;" edge="1" parent="1" source="pd-98tq6UQfaG_9ArizV-7" target="pd-98tq6UQfaG_9ArizV-3">
          <mxGeometry relative="1" as="geometry">
            <Array as="points">
              <mxPoint x="470" y="280" />
              <mxPoint x="607" y="280" />
            </Array>
          </mxGeometry>
        </mxCell>
        <mxCell id="pd-98tq6UQfaG_9ArizV-7" value="&lt;p style=&quot;margin:0px;margin-top:4px;text-align:center;&quot;&gt;&lt;b&gt;StateA&lt;/b&gt;&lt;/p&gt;&lt;hr size=&quot;1&quot; style=&quot;border-style:solid;&quot;&gt;&lt;p style=&quot;margin:0px;margin-left:4px;&quot;&gt;&lt;br&gt;&lt;/p&gt;&lt;hr size=&quot;1&quot; style=&quot;border-style:solid;&quot;&gt;&lt;p style=&quot;margin:0px;margin-left:4px;&quot;&gt;+ Handle()&lt;/p&gt;" style="verticalAlign=top;align=left;overflow=fill;html=1;whiteSpace=wrap;" vertex="1" parent="1">
          <mxGeometry x="390" y="320" width="160" height="90" as="geometry" />
        </mxCell>
        <mxCell id="pd-98tq6UQfaG_9ArizV-10" style="edgeStyle=orthogonalEdgeStyle;rounded=0;orthogonalLoop=1;jettySize=auto;html=1;entryX=0.75;entryY=1;entryDx=0;entryDy=0;dashed=1;endArrow=block;endFill=0;endSize=12;" edge="1" parent="1" source="pd-98tq6UQfaG_9ArizV-9" target="pd-98tq6UQfaG_9ArizV-3">
          <mxGeometry relative="1" as="geometry" />
        </mxCell>
        <mxCell id="pd-98tq6UQfaG_9ArizV-9" value="&lt;p style=&quot;margin:0px;margin-top:4px;text-align:center;&quot;&gt;&lt;b&gt;StateB&lt;/b&gt;&lt;/p&gt;&lt;hr size=&quot;1&quot; style=&quot;border-style:solid;&quot;&gt;&lt;p style=&quot;margin:0px;margin-left:4px;&quot;&gt;&lt;br&gt;&lt;/p&gt;&lt;hr size=&quot;1&quot; style=&quot;border-style:solid;&quot;&gt;&lt;p style=&quot;margin:0px;margin-left:4px;&quot;&gt;+ Handle()&lt;/p&gt;" style="verticalAlign=top;align=left;overflow=fill;html=1;whiteSpace=wrap;" vertex="1" parent="1">
          <mxGeometry x="640" y="350" width="160" height="90" as="geometry" />
        </mxCell>
        <mxCell id="pd-98tq6UQfaG_9ArizV-11" value="Handle()" style="shape=note2;boundedLbl=1;whiteSpace=wrap;html=1;size=25;verticalAlign=top;align=left;spacingLeft=5;" vertex="1" parent="1">
          <mxGeometry x="150" y="320" width="140" height="60" as="geometry" />
        </mxCell>
        <mxCell id="pd-98tq6UQfaG_9ArizV-12" value="Invoke state&#39;s" style="resizeWidth=1;part=1;strokeColor=none;fillColor=none;align=left;spacingLeft=5;whiteSpace=wrap;html=1;" vertex="1" parent="pd-98tq6UQfaG_9ArizV-11">
          <mxGeometry width="140" height="25" relative="1" as="geometry" />
        </mxCell>
        <mxCell id="pd-98tq6UQfaG_9ArizV-13" style="edgeStyle=orthogonalEdgeStyle;rounded=0;orthogonalLoop=1;jettySize=auto;html=1;entryX=0.25;entryY=1;entryDx=0;entryDy=0;endArrow=none;endFill=0;" edge="1" parent="1" source="pd-98tq6UQfaG_9ArizV-12" target="pd-98tq6UQfaG_9ArizV-2">
          <mxGeometry relative="1" as="geometry" />
        </mxCell>
      </root>
    </mxGraphModel>
  </diagram>
</mxfile>
